<?xml version="1.0" encoding="utf-8"?>
<!-- Generator: Adobe Illustrator 22.1.0, SVG Export Plug-In . SVG Version: 6.00 Build 0)  -->
<svg version="1.1" id="Layer_1" xmlns="http://www.w3.org/2000/svg" xmlns:xlink="http://www.w3.org/1999/xlink" x="0px" y="0px"
	 viewBox="0 0 100 100" style="enable-background:new 0 0 100 100;" xml:space="preserve">
<style type="text/css">
	.st0{fill:#F17000;}
	.st1{fill:#C35D1A;}
	.st2{fill:#FFCC00;}
	.st3{fill:#F8A21C;}
	.st4{fill:#3F180D;}
</style>
<g>
	<g>
		<g>
			<path class="st0" d="M69.7,41.7L69.7,41.7c0.3,0,0.6-0.2,0.9-0.3C70.2,41.5,69.9,41.6,69.7,41.7z"/>
			<path class="st0" d="M70.6,41.3c0.9-0.3,2.2-0.8,3.5-1.3c0.9-0.3,1.7-0.7,2.6-1.1c-1.2,0.3-2.4,0.8-3.5,1.3
				C72.2,40.6,71.3,41,70.6,41.3z"/>
			<path class="st0" d="M57.6,30.1c0.4-0.8,1.2-2.5,2-4.3c2.8-6.2,3-13,0.6-19.8l-0.8-2.3c0-0.2-0.4-0.3-0.5-0.1l0,0
				c-5.8,6-8.9,13.3-9,21c0,1.7,0,3.3,0,4.1c1.4,0,2.8,0.1,4.2,0.4C55.3,29.3,56.5,29.6,57.6,30.1z"/>
			<path class="st0" d="M69.7,41.7c0.3-0.1,0.6-0.2,0.9-0.3c0.7-0.3,1.6-0.7,2.6-1.1c1.2-0.5,2.3-0.9,3.5-1.3
				c5.1-2.6,9.2-6.9,11.9-12.5l1-2.2c0.1-0.2-0.1-0.5-0.3-0.5c-8.4,0.1-15.7,3.1-21.2,8.6c-1.1,1.1-2.2,2.2-2.8,2.8
				C67.1,37,68.6,39.2,69.7,41.7z"/>
			<path class="st0" d="M96.5,58.9c-6-5.8-13.3-8.9-21-9c-1.7,0-3.3,0-4.1,0c0,1.4-0.1,2.8-0.4,4.2c-0.2,1.2-0.6,2.4-1,3.5
				c0.8,0.4,2.5,1.2,4.3,2c6.2,2.8,13,3,19.8,0.6l2.3-0.8C96.6,59.4,96.7,59,96.5,58.9z"/>
			<path class="st0" d="M39.3,26.7c-3-7.1-8.7-12.7-16.4-15.9c-0.2-0.1-0.5,0.1-0.5,0.3l0.1,2.4c0.3,6.2,2.5,11.6,6.2,16
				c0.6,0.7,1.3,1.4,2,2.1c0.8,0.8,1.6,1.5,2.2,2c0.8,0.8,1.3,1.4,1.6,1.7c0.1-0.1,0.1-0.1,0.2-0.2c1.8-1.8,3.9-3.3,6.2-4.4
				C40.7,30,40,28.4,39.3,26.7z"/>
			<path class="st0" d="M30.3,41.9c-0.8-0.3-2.2-0.9-3.8-1.6c-7.2-2.9-15.1-2.8-22.9,0.3c-0.2,0-0.3,0.4-0.1,0.5l1.8,1.6
				c5.4,4.8,11.8,7.2,18.6,6.9c2.1-0.1,3.9-0.2,4.8-0.2c0-1.2,0.2-2.4,0.4-3.6C29.3,44.5,29.7,43.1,30.3,41.9z"/>
			<path class="st0" d="M41.9,69.7c-0.3,0.8-0.9,2.2-1.6,3.8c-2.9,7.2-2.8,15.1,0.3,22.9c0,0.2,0.4,0.3,0.5,0.1l1.6-1.8
				c4.8-5.4,7.2-11.8,6.9-18.6c-0.1-2.1-0.2-3.9-0.2-4.8c-1.2,0-2.4-0.2-3.6-0.4C44.5,70.7,43.2,70.3,41.9,69.7z"/>
			<path class="st0" d="M58.3,69.7c0.2,0.7,1,2.3,1.7,4.1c3,7.1,8.7,12.7,16.4,15.9c0.2,0.1,0.5-0.1,0.5-0.3L76.8,87
				c-0.4-7.2-3.2-13.5-8.2-18c-1.7-1.6-3.2-2.9-3.8-3.4C62.8,67.3,60.6,68.7,58.3,69.7z"/>
			<path class="st0" d="M34.9,65c-1.8-1.8-3.2-3.8-4.2-6.1c-0.9,0.3-2.1,0.8-3.5,1.3c-6.4,2.4-11.4,7.1-14.4,13.6l-1,2.2
				c-0.1,0.2,0.1,0.5,0.3,0.5c6.7-0.1,12.8-2,17.7-5.6c1.2-0.9,2.4-1.9,3.5-3c0.9-0.9,1.7-1.7,2.3-2.3C35.3,65.4,35.1,65.2,34.9,65z
				"/>
			<path class="st0" d="M70.6,41.3c-0.3,0.2-0.7,0.3-0.9,0.4c1,2.4,1.6,5,1.7,7.8c1,0,2.7,0.1,4.7,0.1c6.8,0.1,13.2-2.5,18.4-7.5
				l1.8-1.7c0.2-0.1,0.1-0.5-0.1-0.5c-6.6-2.4-13.2-2.8-19.3-1c-0.8,0.4-1.7,0.8-2.6,1.1C72.8,40.6,71.5,41,70.6,41.3z"/>
			<path class="st0" d="M68.2,68.3c4.7,4.9,11.1,7.5,18.3,7.7l2.4,0.1c0.2,0.1,0.4-0.3,0.3-0.5l0,0C85.7,68,80,62.5,72.8,59.7
				c-1.2-0.5-2.4-0.9-3.2-1.2c-1.1,2.5-2.6,4.8-4.5,6.7C65.8,65.8,66.9,67,68.2,68.3z"/>
			<path class="st0" d="M50.2,76.1c-0.1,6.8,2.5,13.2,7.5,18.4l1.7,1.8c0.1,0.2,0.5,0.1,0.5-0.1c2.9-7.8,2.8-15.8-0.3-22.9
				c-0.6-1.4-1.2-2.7-1.6-3.5c-2.4,1-5,1.5-7.7,1.6C50.3,72.3,50.3,74.1,50.2,76.1z"/>
			<path class="st0" d="M67.6,32.1c5.3-5.6,8.1-13.1,7.9-21.4l0,0c0.1-0.2-0.3-0.4-0.5-0.3l-2.2,1.1c-6.4,3.3-11,8.4-13.2,14.8
				c-0.6,1.6-1,3.1-1.3,4.1c2.5,1.1,4.8,2.6,6.7,4.5C65.6,34.2,66.6,33.2,67.6,32.1z"/>
			<path class="st0" d="M49.4,24.5c-0.2-7.8-3.5-14.9-9.6-20.8c-0.1-0.2-0.5-0.1-0.5,0.1l-0.8,2.3c-2.3,6.9-1.9,13.7,1.2,19.8
				c0.9,1.9,1.7,3.5,2.2,4.3c2.4-1,5-1.6,7.6-1.6C49.5,27.8,49.4,26.2,49.4,24.5z"/>
			<path class="st0" d="M24.6,50.7c-7.8,0.2-14.9,3.5-20.8,9.6c-0.2,0.1-0.1,0.5,0.1,0.5l2.3,0.8c6.9,2.3,13.7,1.9,19.8-1.2
				c1.9-0.9,3.5-1.7,4.3-2.2c-1-2.4-1.6-5-1.6-7.6C27.8,50.6,26.2,50.6,24.6,50.7z"/>
			<path class="st0" d="M33.2,67.9c-1.1,1.1-2.3,2.1-3.5,3c-3.7,5.2-5.6,11.5-5.5,18.4c-0.1,0.2,0.3,0.4,0.5,0.3l2.2-1.1
				c6.4-3.3,11-8.4,13.2-14.8c0.6-1.7,1.1-3.2,1.4-4.1c-2.2-1-4.2-2.3-6-3.9C34.9,66.3,34.1,67.1,33.2,67.9z"/>
			<path class="st0" d="M33,33.6c-0.6-0.6-1.4-1.3-2.2-2c-0.7-0.7-1.4-1.4-2-2.1c-4.4-3.6-9.9-5.5-16-5.7l-2.4-0.1
				c-0.4,0-0.6,0.3-0.5,0.5c3.5,7.6,9.2,13.1,16.4,15.9c1.7,0.7,3.3,1.3,4,1.5c1-2.4,2.5-4.6,4.2-6.4C34.3,35,33.7,34.4,33,33.6z"/>
			<path class="st0" d="M59.4,3.6"/>
			<path class="st0" d="M91.2,77.6"/>
			<g>
				<path class="st0" d="M54.3,70.9L54.3,70.9l5.5,25.4l0,0C59,92.5,55.4,76,54.3,70.9z"/>
			</g>
			<g>
				<path class="st1" d="M65.1,65.1c0.7,0.7,1.8,1.9,3.1,3.2c4.7,4.9,11.1,7.5,18.3,7.7l2.4,0.1c0.1,0,0.2,0,0.2-0.1L67.6,62.1
					C66.8,63.2,66,64.2,65.1,65.1z"/>
				<path class="st1" d="M59.7,25.7c2.8-6.2,3-13,0.6-19.8l-0.8-2.3l-5.3,25.5c1.2,0.2,2.4,0.6,3.5,1C58,29.2,58.8,27.6,59.7,25.7z"
					/>
				<path class="st1" d="M65,34.8c0.6-0.6,1.6-1.7,2.6-2.7c5.3-5.6,8.1-13.1,7.9-21.4c0-0.1-0.1-0.3-0.3-0.3L61.7,32.1
					C62.9,32.9,64,33.8,65,34.8z"/>
				<path class="st1" d="M69.7,41.7c0.3-0.1,0.6-0.2,0.9-0.3c0.7-0.3,1.6-0.7,2.6-1.1c1.2-0.5,2.3-0.9,3.5-1.3
					c5.1-2.6,9.2-6.9,11.9-12.5l1-2.2c0.1-0.1,0-0.2,0-0.3L67.8,38.3C68.5,39.3,69.1,40.5,69.7,41.7z"/>
				<path class="st1" d="M71.3,49.5c1,0,2.7,0.1,4.7,0.1c6.8,0.1,13.2-2.5,18.4-7.5l1.8-1.7c0.1,0,0.1-0.1,0.1-0.2L71,45.5
					C71.2,46.9,71.3,48.2,71.3,49.5z"/>
				<path class="st1" d="M71,53.9c0,0.1,0,0.1,0,0.2c-0.2,1.2-0.6,2.4-1,3.5c0.8,0.4,2.5,1.2,4.3,2c6.2,2.8,13,3,19.8,0.6l2.3-0.8
					c0.1,0,0.1-0.1,0.2-0.1L71,53.9z"/>
				<path class="st1" d="M58.3,69.7c0.2,0.7,1,2.3,1.7,4.1c3,7.1,8.7,12.7,16.4,15.9c0.1,0.1,0.2,0,0.3-0.1L61.3,68.1
					C60.3,68.7,59.3,69.2,58.3,69.7z"/>
				<path class="st1" d="M50.3,71.3c0,0.9-0.1,2.7-0.1,4.8c-0.1,6.8,2.5,13.2,7.5,18.4l1.7,1.8c0.1,0.1,0.3,0.1,0.4,0.1L54.3,71
					C53,71.2,51.7,71.3,50.3,71.3z"/>
				<path class="st1" d="M40.3,73.5c-2.9,7.2-2.8,15.1,0.3,22.9c0,0.1,0.1,0.1,0.2,0.2l5-25.7c-1.4-0.3-2.7-0.7-4-1.2
					C41.5,70.5,41,72,40.3,73.5z"/>
				<path class="st1" d="M33.2,67.9c-1.1,1.1-2.3,2.1-3.5,3c-3.7,5.2-5.6,11.5-5.5,18.4c0,0.1,0,0.2,0.1,0.3l13.8-21.8
					c-0.9-0.6-1.8-1.3-2.7-2.1C34.9,66.3,34.1,67.1,33.2,67.9z"/>
				<path class="st1" d="M30.6,58.9c-0.9,0.3-2.1,0.8-3.5,1.3c-6.4,2.4-11.4,7.1-14.4,13.6l-1,2.2c-0.1,0.1,0,0.2,0,0.3l20.9-14
					C31.9,61.3,31.2,60.1,30.6,58.9z"/>
				<path class="st1" d="M28.7,50.5c-0.8,0-2.4,0.1-4.1,0.1c-7.8,0.2-14.9,3.5-20.8,9.6c-0.1,0.1-0.1,0.2-0.1,0.3l25.5-5.7
					C28.9,53.4,28.7,52,28.7,50.5z"/>
				<path class="st1" d="M30.3,41.9c-0.8-0.3-2.2-0.9-3.8-1.6c-7.2-2.9-15.1-2.8-22.9,0.3c-0.1,0-0.1,0.1-0.2,0.2l25.7,4.9
					C29.4,44.4,29.8,43.1,30.3,41.9z"/>
				<path class="st1" d="M34.6,35.3c-0.2-0.3-0.8-0.9-1.6-1.7c-0.6-0.6-1.4-1.3-2.2-2c-0.7-0.7-1.4-1.4-2-2.1
					c-4.4-3.6-9.9-5.5-16-5.7l-2.4-0.1c-0.1,0-0.2,0.1-0.3,0.2L32.5,38C33,37.1,33.7,36.1,34.6,35.3z"/>
				<path class="st1" d="M40.9,30.7c-0.3-0.7-1-2.3-1.7-4c-3-7.1-8.7-12.7-16.4-15.9c-0.1-0.1-0.2,0-0.3,0l15,21.9
					C38.6,31.9,39.8,31.2,40.9,30.7z"/>
				<path class="st1" d="M39.8,3.8c-0.1-0.1-0.2-0.1-0.4-0.1l6.1,25.4c1.3-0.3,2.6-0.4,4-0.5c0-0.8-0.1-2.4-0.1-4.1
					C49.1,16.8,45.8,9.6,39.8,3.8z"/>
			</g>
			>
		<animateTransform attributeName="transform"
			attributeType="XML"
			type="rotate"
			from="0 50  50"
			to="360 50 50"
			dur="17s"
			repeatCount="indefinite" />
	
		</g>
		<g>
			<path class="st2" d="M32,38.5c0-0.1,0.1-0.1,0.1-0.2c-0.2-0.1-1-0.5-2-1.2C31,37.8,31.7,38.3,32,38.5z"/>
			<path class="st2" d="M67.7,38C67.7,38.1,67.7,38.1,67.7,38c0.3-0.1,0.6-0.3,0.9-0.5C68.2,37.7,67.9,37.9,67.7,38z"/>
			<path class="st2" d="M38.8,68.1c-0.2-0.2-0.5-0.3-0.7-0.5c-0.5,0.7-1.3,2-2.1,3.3c-0.7,1.1-1.3,2.3-1.8,3.4c1-1.1,2-2.3,2.9-3.6
				C37.6,69.8,38.3,68.9,38.8,68.1z"/>
			<path class="st2" d="M30.1,37.2c-0.7-0.5-1.5-1.1-2.4-1.7c-0.8-0.6-1.7-1.1-2.6-1.6c0.8,0.6,1.6,1.2,2.4,1.7
				C28.5,36.2,29.4,36.7,30.1,37.2z"/>
			<path class="st2" d="M68.5,37.5c0.8-0.5,2-1.2,3.2-1.9c0.8-0.5,1.6-1,2.3-1.6c-1.1,0.6-2.2,1.2-3.2,1.9
				C70,36.5,69.2,37.1,68.5,37.5z"/>
			<path class="st2" d="M53.6,29c0.2-0.9,0.7-2.6,1.2-4.7c1.6-6.6,0.5-13.4-3.2-19.6l-1.3-2.1c-0.1-0.2-0.5-0.2-0.6,0l0,0
				c-4.6,7-6.2,14.8-4.7,22.4c0.3,1.7,0.6,3.2,0.8,4c1.4-0.3,2.7-0.4,4.2-0.4C51.2,28.7,52.5,28.8,53.6,29z"/>
			<path class="st2" d="M67.7,38c0.2-0.1,0.5-0.3,0.9-0.5c0.7-0.5,1.5-1,2.3-1.6c1-0.7,2.1-1.4,3.2-1.9c4.6-3.5,7.7-8.5,9.2-14.5
				l0.6-2.4c0.1-0.2-0.2-0.5-0.4-0.4c-8.2,1.7-14.8,6-19.2,12.5c-0.9,1.3-1.7,2.5-2.2,3.3C64.3,34,66.2,35.9,67.7,38z"/>
			<path class="st2" d="M97.3,49.8c-7-4.6-14.8-6.2-22.4-4.7c-1.7,0.3-3.2,0.6-4,0.8c0.3,1.4,0.4,2.7,0.4,4.2c0,1.2-0.1,2.5-0.3,3.6
				c0.9,0.2,2.6,0.7,4.7,1.2c6.6,1.6,13.4,0.5,19.6-3.2l2.1-1.3C97.6,50.2,97.6,49.8,97.3,49.8z"/>
			<path class="st2" d="M30.1,37.2c1,0.6,1.8,1.1,2,1.2c1.4-2.1,3.2-4,5.2-5.5C37,32.2,36,30.7,35,29.2c-4.3-6.4-11-10.8-19.2-12.5
				c-0.2-0.1-0.5,0.2-0.4,0.4l0.6,2.4c1.5,6,4.6,10.9,9.2,14.5c0.9,0.5,1.8,1,2.6,1.6C28.6,36.1,29.4,36.7,30.1,37.2z"/>
			<path class="st2" d="M29.1,45.8c-0.8-0.2-2.4-0.5-4-0.8c-7.6-1.5-15.4,0.2-22.4,4.7c-0.2,0.1-0.2,0.5,0,0.6l2.1,1.3
				c6.2,3.7,13,4.8,19.6,3.2c2-0.5,3.8-0.9,4.7-1.2c-0.2-1.2-0.3-2.4-0.3-3.6C28.7,48.6,28.8,47.2,29.1,45.8z"/>
			<path class="st2" d="M45.8,70.9c-0.2,0.8-0.5,2.4-0.8,4c-1.5,7.6,0.2,15.4,4.7,22.4c0.1,0.2,0.5,0.2,0.6,0l1.3-2.1
				c3.7-6.2,4.8-13,3.2-19.6c-0.5-2-0.9-3.8-1.2-4.7c-1.2,0.2-2.4,0.3-3.6,0.3C48.6,71.3,47.2,71.2,45.8,70.9z"/>
			<path class="st2" d="M61.9,67.7c0.4,0.6,1.4,2.1,2.5,3.7c4.3,6.4,11,10.8,19.2,12.5c0.2,0.1,0.5-0.2,0.4-0.4l-0.6-2.4
				c-1.8-7-5.8-12.6-11.5-16.1c-2-1.2-3.7-2.2-4.4-2.6C65.9,64.5,64,66.3,61.9,67.7z"/>
			<path class="st2" d="M38,67.7c-2.1-1.4-3.9-3.2-5.3-5.2c-0.8,0.5-1.9,1.2-3.2,1.9c-5.8,3.5-9.8,9.1-11.5,16.1l-0.6,2.4
				c-0.1,0.2,0.2,0.5,0.4,0.4c6.6-1.4,12.1-4.4,16.3-8.9c0.5-1.2,1.1-2.3,1.8-3.4C36.8,69.6,37.6,68.4,38,67.7z"/>
			<path class="st2" d="M68.5,37.5c-0.3,0.2-0.6,0.4-0.8,0.6c1.5,2.2,2.5,4.6,3.1,7.3c0.9-0.1,2.7-0.4,4.6-0.8
				c6.7-1.2,12.4-5,16.6-10.9l1.4-2c0.2-0.1,0-0.5-0.2-0.5C86.3,30.1,79.7,31,74,34c-0.7,0.6-1.5,1.1-2.3,1.6
				C70.5,36.4,69.4,37,68.5,37.5z"/>
			<path class="st2" d="M71.4,64.5c5.6,3.9,12.3,5.3,19.4,4l2.4-0.4c0.2,0,0.4-0.4,0.2-0.5l0,0c-4.9-6.8-11.5-11.1-19.2-12.5
				c-1.3-0.2-2.5-0.5-3.4-0.6c-0.6,2.7-1.7,5.2-3.1,7.4C68.5,62.5,69.9,63.4,71.4,64.5z"/>
			<path class="st2" d="M55.3,75.6c1.2,6.7,5,12.4,10.9,16.6l2,1.4c0.1,0.2,0.5,0,0.5-0.2c1.4-8.3-0.3-16-4.7-22.4
				c-0.9-1.2-1.7-2.4-2.2-3.1c-2.2,1.4-4.6,2.5-7.3,3C54.6,71.8,54.9,73.6,55.3,75.6z"/>
			<path class="st2" d="M63.8,29.1c4.1-6.6,5.4-14.4,3.7-22.6l0,0c0-0.2-0.4-0.4-0.5-0.2l-2,1.5c-5.7,4.4-9.2,10.3-10.1,17.1
				c-0.2,1.7-0.4,3.3-0.5,4.3c2.7,0.6,5.2,1.6,7.4,3.1C62.3,31.5,63,30.3,63.8,29.1z"/>
			<path class="st2" d="M44.5,25.1c-1.7-7.6-6.4-14-13.4-18.6c-0.1-0.2-0.5,0-0.5,0.2l-0.3,2.4c-0.9,7.2,0.8,13.8,4.9,19.2
				c1.3,1.6,2.4,3.1,2.9,3.8c2.2-1.4,4.6-2.5,7.2-3.1C45.2,28.3,44.8,26.8,44.5,25.1z"/>
			<path class="st2" d="M25.2,55.5c-7.6,1.7-14,6.4-18.6,13.4c-0.2,0.1,0,0.5,0.2,0.5l2.4,0.3c7.2,0.9,13.8-0.8,19.2-4.9
				c1.6-1.3,3.1-2.4,3.8-2.9c-1.4-2.2-2.5-4.6-3.1-7.2C28.4,54.8,26.8,55.2,25.2,55.5z"/>
			<path class="st2" d="M37,70.8c-0.9,1.3-1.8,2.5-2.9,3.6c-2.6,5.8-3.3,12.3-1.8,19.1c0,0.2,0.4,0.4,0.5,0.2l1.9-1.5
				c5.7-4.4,9.2-10.3,10.1-17.1c0.2-1.8,0.4-3.3,0.5-4.3c-2.4-0.5-4.6-1.4-6.6-2.7C38.3,68.9,37.6,69.8,37,70.8z"/>
			<path class="st2" d="M30.1,37.2c-0.7-0.4-1.6-1-2.6-1.6c-0.8-0.5-1.6-1.1-2.4-1.7c-5-2.7-10.8-3.5-16.8-2.5l-2.4,0.4
				c-0.2,0-0.4,0.4-0.2,0.5c4.9,6.8,11.5,11.1,19.2,12.5c1.8,0.3,3.5,0.6,4.2,0.7c0.5-2.6,1.5-5,2.9-7.1
				C31.7,38.3,31,37.8,30.1,37.2z"/>
		</g>
		<g>
			<path class="st3" d="M67.7,61.9c0.8,0.6,2.1,1.5,3.7,2.6c5.6,3.9,12.3,5.3,19.4,4l2.4-0.4c0.1,0,0.1,0,0.2-0.1l-23.8-9.5
				C69.1,59.7,68.4,60.8,67.7,61.9z"/>
			<path class="st3" d="M54.8,24.3c1.6-6.6,0.5-13.4-3.3-19.6l-1.3-2.1l-0.3,26c1.2,0,2.5,0.1,3.6,0.3
				C53.9,28.1,54.3,26.3,54.8,24.3z"/>
			<path class="st3" d="M61.8,32.2c0.5-0.7,1.2-1.9,2-3.2c4.1-6.6,5.4-14.4,3.6-22.6c0-0.2-0.2-0.3-0.4-0.3l-9.1,24
				C59.3,30.7,60.6,31.4,61.8,32.2z"/>
			<path class="st3" d="M67.7,38c0.2-0.1,0.5-0.3,0.9-0.5c0.7-0.5,1.5-1,2.3-1.6c1-0.7,2.1-1.4,3.2-1.9c4.6-3.5,7.7-8.5,9.2-14.5
				l0.6-2.4c0-0.1,0-0.2-0.1-0.3L65.2,35C66.1,36,66.9,37,67.7,38z"/>
			<path class="st3" d="M70.8,45.4c0.9-0.1,2.7-0.4,4.6-0.8c6.7-1.2,12.4-5,16.6-10.9l1.4-2c0.1-0.1,0.1-0.1,0.1-0.2L69.6,41.6
				C70.1,42.8,70.5,44.1,70.8,45.4z"/>
			<path class="st3" d="M71.3,49.8c0,0.1,0,0.1,0,0.2c0,1.2-0.1,2.5-0.3,3.6c0.9,0.2,2.6,0.7,4.7,1.2c6.6,1.6,13.4,0.5,19.6-3.3
				l2.1-1.3c0.1,0,0.1-0.1,0.1-0.2L71.3,49.8z"/>
			<path class="st3" d="M61.9,67.7c0.4,0.6,1.4,2.1,2.5,3.7c4.3,6.4,11,10.7,19.2,12.5c0.1,0.1,0.2,0,0.3-0.1L64.6,65.6
				C63.7,66.4,62.8,67.1,61.9,67.7z"/>
			<path class="st3" d="M54.4,70.9c0.1,0.9,0.4,2.7,0.8,4.7c1.2,6.7,5,12.4,10.9,16.6l2,1.4c0.1,0.1,0.3,0.1,0.4,0L58.2,69.7
				C57,70.2,55.7,70.6,54.4,70.9z"/>
			<path class="st3" d="M45,75c-1.5,7.6,0.2,15.4,4.8,22.4c0,0.1,0.1,0.1,0.2,0.1V71.4c-1.4,0-2.8-0.1-4.2-0.4
				C45.6,71.8,45.3,73.3,45,75z"/>
			<path class="st3" d="M37,70.8c-0.9,1.3-1.8,2.5-2.8,3.6c-2.6,5.8-3.2,12.3-1.8,19.1c0,0.1,0.1,0.2,0.2,0.2l9.3-24.1
				c-1.1-0.4-2.1-1-3-1.5C38.3,68.9,37.6,69.8,37,70.8z"/>
			<path class="st3" d="M32.7,62.5c-0.8,0.5-1.9,1.2-3.2,1.9C23.8,68,19.8,73.6,18,80.6L17.4,83c0,0.1,0,0.2,0.1,0.3l17.8-17.7
				C34.4,64.6,33.5,63.6,32.7,62.5z"/>
			<path class="st3" d="M29.2,54.7c-0.8,0.2-2.4,0.5-4,0.9C17.6,57.3,11.2,62,6.7,69c-0.1,0.1-0.1,0.2,0,0.3l23.9-10.6
				C29.9,57.4,29.5,56.1,29.2,54.7z"/>
			<path class="st3" d="M29.1,45.8c-0.8-0.2-2.4-0.5-4-0.8c-7.6-1.5-15.4,0.2-22.4,4.8c-0.1,0-0.1,0.1-0.1,0.2l26.1-0.1
				C28.7,48.5,28.8,47.1,29.1,45.8z"/>
			<path class="st3" d="M32,38.5c-0.3-0.2-1-0.7-1.9-1.4c-0.7-0.4-1.6-1-2.6-1.6c-0.8-0.5-1.6-1.1-2.4-1.7c-5-2.6-10.8-3.5-16.8-2.5
				l-2.4,0.4c-0.1,0-0.2,0.1-0.3,0.3l24.7,9.5C30.8,40.6,31.3,39.5,32,38.5z"/>
			<path class="st3" d="M37.4,32.8C37,32.2,36,30.7,35,29.2c-4.3-6.4-11-10.7-19.2-12.5c-0.1,0-0.2,0-0.3,0.1l19,18.6
				C35.3,34.4,36.3,33.6,37.4,32.8z"/>
			<path class="st3" d="M31,6.6c-0.1-0.1-0.2-0.1-0.4,0l10.9,23.8c1.2-0.5,2.5-0.9,3.8-1.2c-0.2-0.8-0.5-2.4-0.9-4
				C42.7,17.6,38.1,11.2,31,6.6z"/>
		</g>
	</g>
	<!-- Detalhes do miolo -->
	<g>
		<g>
			<polygon class="st4" points="44.6,29.3 44.2,22.9 47.3,28.9 			"/>
			<polygon class="st4" points="53.3,29.6 55.2,23.4 56,30.2 			"/>
			<polygon class="st4" points="61,32 65.3,27.2 63.2,33.7 			"/>
			<polygon class="st4" points="67,38.3 72.7,35.3 68.5,40.7 			"/>
			<polygon class="st4" points="70.4,44.7 76.9,45 70.5,47.5 			"/>
			<polygon class="st4" points="70.9,52.7 76.6,55.7 69.8,55.3 			"/>
			<polygon class="st4" points="33.5,36.7 27.3,34.6 32.3,39.3 			"/>
			<polygon class="st4" points="39.8,32.5 35,28.2 37.8,34.4 			"/>
			<polygon class="st4" points="29.4,52.4 23.8,55.7 30.6,54.9 			"/>
			<polygon class="st4" points="60,68.6 64.7,73.1 62.1,66.7 			"/>
			<polygon class="st4" points="66.2,62.3 72,65.2 67.7,59.9 			"/>
			<polygon class="st4" points="29.7,46.7 23.5,44.6 30.3,44 			"/>
			<polygon class="st4" points="32,61.2 27.1,65.4 33.6,63.5 			"/>
			<polygon class="st4" points="37.6,67.1 34.4,72.7 39.6,68.3 			"/>
			<polygon class="st4" points="44.3,71 44.4,76.4 47.1,71.1 			"/>
			<polygon class="st4" points="53.1,70.6 54.8,76.8 55.8,70.1 			"/>
		</g>
	</g>
	<!-- Miolo do girassol -->
	<path class="st4" d="M71.3,45.7c0-0.1-0.1-0.3-0.1-0.4c-0.6-2.7-1.7-5.2-3.2-7.4c0,0,0,0,0-0.1c-1.5-2.2-3.4-4.2-5.6-5.7
		c-0.1-0.1-0.2-0.2-0.3-0.2c-2.3-1.5-4.8-2.6-7.5-3.2c-0.3-0.1-0.5-0.1-0.8-0.1c-1.2-0.2-2.4-0.3-3.7-0.3c-1.5,0-2.9,0.1-4.3,0.4
		c-0.2,0-0.3,0.1-0.5,0.1c-2.7,0.6-5.1,1.7-7.3,3.1c-0.3,0.2-0.5,0.4-0.8,0.6c-2.1,1.5-3.9,3.4-5.3,5.6c0,0.1-0.1,0.1-0.1,0.2
		c-1.4,2.2-2.4,4.6-2.9,7.2c0,0.1,0,0.1,0,0.2c-0.3,1.4-0.4,2.8-0.4,4.3c0,1.3,0.1,2.5,0.3,3.7c0.1,0.3,0.1,0.7,0.2,1
		c0.6,2.7,1.7,5.1,3.1,7.3c0.2,0.2,0.3,0.5,0.5,0.7c1.5,2.1,3.3,3.8,5.4,5.3c0.2,0.2,0.5,0.3,0.7,0.5c2,1.3,4.3,2.2,6.7,2.7
		c0.2,0,0.3,0.1,0.5,0.1c1.4,0.3,2.8,0.4,4.3,0.4c1.3,0,2.5-0.1,3.7-0.3c0.3,0,0.5-0.1,0.8-0.2c2.7-0.6,5.2-1.6,7.4-3.1
		c0.1,0,0.1-0.1,0.2-0.1c2.2-1.5,4.1-3.3,5.6-5.4c0.1-0.2,0.2-0.3,0.3-0.5c1.5-2.2,2.6-4.8,3.2-7.5c0.1-0.3,0.1-0.6,0.2-0.9
		c0.2-1.2,0.3-2.4,0.3-3.7C71.7,48.5,71.6,47.1,71.3,45.7z"/>
</g>
</svg>
